<svg xmlns="http://www.w3.org/2000/svg" viewBox="0 0 1080 1080" font-family="Menlo, Consolas, monospace"><defs><linearGradient id="bg2" x1="0" y1="0" x2="0" y2="1"><stop offset="0" stop-color="#050810"/><stop offset="0.6" stop-color="#0b1224"/><stop offset="1" stop-color="#0a0f1d"/></linearGradient><linearGradient id="fire" x1="0" y1="0" x2="1" y2="1"><stop offset="0" stop-color="#fbbf24"/><stop offset="0.5" stop-color="#f97316"/><stop offset="1" stop-color="#dc2626"/></linearGradient><linearGradient id="fireDeep" x1="0" y1="0" x2="1" y2="1"><stop offset="0" stop-color="#b91c1c"/><stop offset="1" stop-color="#7c2d12"/></linearGradient><linearGradient id="chrome" x1="0" y1="0" x2="0" y2="1"><stop offset="0" stop-color="#f1f5f9"/><stop offset="0.5" stop-color="#94a3b8"/><stop offset="1" stop-color="#475569"/></linearGradient><linearGradient id="holo" x1="0" y1="0" x2="0" y2="1"><stop offset="0" stop-color="#60a5fa" stop-opacity="0.55"/><stop offset="1" stop-color="#1d4ed8" stop-opacity="0.35"/></linearGradient><radialGradient id="emberGlow" cx="0.5" cy="0.5" r="0.5"><stop offset="0" stop-color="#f97316" stop-opacity="0.5"/><stop offset="1" stop-color="#f97316" stop-opacity="0"/></radialGradient><radialGradient id="holoGlow" cx="0.5" cy="0.5" r="0.5"><stop offset="0" stop-color="#3b82f6" stop-opacity="0.45"/><stop offset="1" stop-color="#3b82f6" stop-opacity="0"/></radialGradient><filter id="blur8"><feGaussianBlur stdDeviation="8"/></filter><filter id="blur16"><feGaussianBlur stdDeviation="16"/></filter><filter id="blur3"><feGaussianBlur stdDeviation="3"/></filter></defs><rect width="1080" height="1080" fill="url(#bg2)"/><g opacity="0.8"><g><rect x="18" y="180" width="130" height="620" rx="8" fill="#0e1526" stroke="#1e293b" stroke-width="3"/><g fill="#122036"><rect x="32" y="200" width="102" height="52" rx="4"/><rect x="32" y="264" width="102" height="52" rx="4"/><rect x="32" y="328" width="102" height="52" rx="4"/><rect x="32" y="392" width="102" height="52" rx="4"/><rect x="32" y="456" width="102" height="52" rx="4"/><rect x="32" y="520" width="102" height="52" rx="4"/><rect x="32" y="584" width="102" height="52" rx="4"/><rect x="32" y="648" width="102" height="52" rx="4"/><rect x="32" y="712" width="102" height="52" rx="4"/></g><g fill="#22c55e"><circle cx="44" cy="214" r="3"/><circle cx="56" cy="214" r="3"/><circle cx="44" cy="342" r="3"/><circle cx="56" cy="342" r="3"/><circle cx="44" cy="470" r="3"/><circle cx="44" cy="598" r="3"/><circle cx="44" cy="726" r="3"/><circle cx="56" cy="726" r="3"/></g><g fill="#f59e0b"><circle cx="68" cy="278" r="3"/><circle cx="68" cy="406" r="3"/><circle cx="56" cy="534" r="3"/><circle cx="68" cy="662" r="3"/></g></g><g><rect x="932" y="180" width="130" height="620" rx="8" fill="#0e1526" stroke="#1e293b" stroke-width="3"/><g fill="#122036"><rect x="946" y="200" width="102" height="52" rx="4"/><rect x="946" y="264" width="102" height="52" rx="4"/><rect x="946" y="328" width="102" height="52" rx="4"/><rect x="946" y="392" width="102" height="52" rx="4"/><rect x="946" y="456" width="102" height="52" rx="4"/><rect x="946" y="520" width="102" height="52" rx="4"/><rect x="946" y="584" width="102" height="52" rx="4"/><rect x="946" y="648" width="102" height="52" rx="4"/><rect x="946" y="712" width="102" height="52" rx="4"/></g><g fill="#22c55e"><circle cx="960" cy="214" r="3"/><circle cx="960" cy="342" r="3"/><circle cx="972" cy="470" r="3"/><circle cx="960" cy="598" r="3"/><circle cx="960" cy="726" r="3"/></g><g fill="#38bdf8"><circle cx="984" cy="278" r="3"/><circle cx="972" cy="406" r="3"/><circle cx="984" cy="534" r="3"/><circle cx="972" cy="662" r="3"/></g></g></g><g font-size="17" fill="#1f3a5f" opacity="0.8"><text x="500" y="210">1 0 1 1 0 0 1</text><text x="560" y="250">0 1 0 0 1</text><text x="520" y="290">1 1 0 1 0 1</text><text x="590" y="330">0 0 1 1</text><text x="545" y="370">1 0 1 0 0 1</text></g><path d="M 0,800 L 1080,800 L 1080,880 L 0,880 Z" fill="#0d1424"/><g stroke="#16233c" stroke-width="2"><line x1="0" y1="820" x2="1080" y2="820"/><line x1="0" y1="848" x2="1080" y2="848"/><line x1="120" y1="800" x2="60" y2="880"/><line x1="360" y1="800" x2="330" y2="880"/><line x1="600" y1="800" x2="600" y2="880"/><line x1="840" y1="800" x2="885" y2="880"/></g><ellipse cx="330" cy="450" rx="330" ry="380" fill="url(#emberGlow)"/><g filter="url(#blur16)" opacity="0.7"><ellipse cx="300" cy="760" rx="220" ry="60" fill="#7c2d12"/><ellipse cx="180" cy="720" rx="120" ry="46" fill="#57534e"/></g><g font-size="18" fill="#fb923c" opacity="0.85"><text x="80" y="620" transform="rotate(-14 80 620)">{"total": "33.600"</text><text x="70" y="668" transform="rotate(-6 70 668)">```json</text><text x="96" y="712" transform="rotate(4 96 712)">"currency": "pesos"</text><text x="60" y="756" transform="rotate(-10 60 756)">Sure! Here is the</text></g><path d="M 150,740 C 90,700 120,630 210,640 C 320,652 380,700 430,740" fill="none" stroke="url(#fireDeep)" stroke-width="42" stroke-linecap="round"/><path d="M 430,740 C 520,700 520,610 430,560 C 330,506 260,520 230,440 C 200,356 280,290 370,300 C 430,306 470,280 480,240" fill="none" stroke="url(#fire)" stroke-width="64" stroke-linecap="round"/><path d="M 430,740 C 520,700 520,610 430,560 C 330,506 260,520 230,440 C 200,356 280,290 370,300 C 430,306 470,280 480,240" fill="none" stroke="#7c2d12" stroke-width="30" stroke-linecap="butt" stroke-dasharray="26 20" opacity="0.75"/><path d="M 430,740 C 520,700 520,610 430,560 C 330,506 260,520 230,440 C 200,356 280,290 370,300 C 430,306 470,280 480,240" fill="none" stroke="#fde68a" stroke-width="4" stroke-dasharray="12 30" opacity="0.9"/><g fill="url(#fire)"><path d="M 470,690 l 52,-30 l -18,58 z"/><path d="M 490,610 l 56,-16 l -30,50 z"/><path d="M 300,520 l -10,-62 l 44,40 z"/><path d="M 240,470 l -40,-48 l 56,18 z"/><path d="M 250,350 l -26,-56 l 54,26 z"/><path d="M 330,290 l 6,-62 l 38,46 z"/></g><path d="M 430,560 C 470,600 490,650 480,700" fill="none" stroke="url(#fireDeep)" stroke-width="26" stroke-linecap="round"/><g fill="#fbbf24"><path d="M 480,700 l 30,26 l -36,-4 z"/><path d="M 478,706 l 10,38 l -24,-26 z"/><path d="M 470,708 l -14,32 l -6,-34 z"/></g><g><path d="M 480,240 C 494,210 520,196 552,200" fill="none" stroke="url(#fire)" stroke-width="52" stroke-linecap="round"/><path d="M 520,168 L 640,140 L 700,176 L 636,196 L 706,238 L 596,252 L 530,240 C 496,230 494,186 520,168 Z" fill="url(#fire)"/><path d="M 536,246 L 668,258 L 610,310 L 540,278 Z" fill="url(#fireDeep)"/><path d="M 540,160 L 448,96 L 566,128 Z" fill="url(#fireDeep)"/><path d="M 588,146 L 540,64 L 630,120 Z" fill="url(#fireDeep)"/><path d="M 636,140 L 626,84 L 678,124 Z" fill="url(#fireDeep)"/><circle cx="576" cy="188" r="13" fill="#0b1020"/><circle cx="581" cy="184" r="6" fill="#fef08a"/><g fill="#fef9c3"><path d="M 636,200 l 16,22 l 12,-20 z"/><path d="M 672,208 l 14,20 l 10,-18 z"/><path d="M 600,250 l 14,-20 l 12,22 z"/><path d="M 640,256 l 12,-18 l 12,20 z"/></g></g><text x="285" y="470" font-size="27" fill="#fda4af" transform="rotate(-76 285 470)" paint-order="stroke" stroke="#0b1020" stroke-width="8">free-form output</text><g filter="url(#blur8)"><path d="M 700,225 C 750,225 790,240 830,268" stroke="#f97316" stroke-width="30" fill="none" stroke-linecap="round" opacity="0.85"/></g><path d="M 700,225 C 748,226 786,240 824,264" stroke="#fbbf24" stroke-width="12" fill="none" stroke-linecap="round"/><circle cx="830" cy="268" r="26" fill="#fef08a" filter="url(#blur8)"/><circle cx="830" cy="268" r="10" fill="#ffffff"/><g><rect x="700" y="60" width="330" height="150" rx="10" fill="#0b1a33" opacity="0.85" stroke="#38bdf8" stroke-width="2"/><text x="720" y="96" font-size="21" fill="#7dd3fc">Sure! Here is the JSON:</text><text x="720" y="130" font-size="21" fill="#e0f2fe">{ "total": "33.600",</text><text x="736" y="162" font-size="21" fill="#e0f2fe">"currency": "pesos" }</text><text x="720" y="194" font-size="18" fill="#f87171">json.loads: FAIL</text><g stroke="#38bdf8" stroke-width="2" opacity="0.4"><line x1="760" y1="210" x2="820" y2="256"/><line x1="900" y1="210" x2="842" y2="260"/></g></g><circle cx="820" cy="520" r="240" fill="url(#holoGlow)"/><line x1="905" y1="470" x2="833" y2="271" stroke="url(#chrome)" stroke-width="14" stroke-linecap="round"/><path d="M 833,271 L 812,232 L 856,252 Z" fill="#f1f5f9"/><text x="955" y="386" font-size="21" fill="#93c5fd" text-anchor="middle" transform="rotate(70 955 386)" paint-order="stroke" stroke="#050810" stroke-width="8">FSM: regex &#8594; automaton</text><g><path d="M 918,640 L 962,646 L 986,706 L 948,714 Z" fill="#94a3b8"/><path d="M 948,714 L 986,706 L 996,776 L 962,780 Z" fill="url(#chrome)"/><path d="M 954,776 L 1006,776 L 1010,798 L 950,798 Z" fill="#64748b"/><path d="M 862,644 L 902,648 L 886,712 L 850,706 Z" fill="#94a3b8"/><path d="M 850,706 L 886,712 L 874,778 L 842,776 Z" fill="url(#chrome)"/><path d="M 834,776 L 886,776 L 890,798 L 828,798 Z" fill="#64748b"/><circle cx="967" cy="710" r="11" fill="#cbd5e1"/><circle cx="868" cy="709" r="11" fill="#cbd5e1"/><path d="M 828,530 C 812,470 852,432 902,438 C 952,444 976,492 962,552 L 946,650 C 942,676 852,676 850,650 Z" fill="url(#chrome)"/><circle cx="898" cy="520" r="20" fill="#0b1a33" stroke="#38bdf8" stroke-width="4"/><circle cx="898" cy="520" r="8" fill="#38bdf8"/><circle cx="864" cy="470" r="26" fill="#cbd5e1"/><path d="M 864,470 L 908,452 L 918,478 L 874,494 Z" fill="#94a3b8"/><path d="M 872,404 C 866,368 928,364 926,402 L 926,428 L 872,428 Z" fill="url(#chrome)"/><rect x="878" y="396" width="42" height="10" rx="5" fill="#0ea5e9"/><path d="M 898,364 L 898,336 L 916,356 Z" fill="#38bdf8"/><path d="M 850,540 L 800,560 L 792,540 L 842,518 Z" fill="#94a3b8"/></g><g><path d="M 706,436 C 706,398 744,378 796,378 C 848,378 886,398 886,436 C 886,540 842,614 796,646 C 750,614 706,540 706,436 Z" fill="url(#holo)" stroke="#60a5fa" stroke-width="5"/><path d="M 720,440 C 720,410 752,392 796,392 C 840,392 872,410 872,440 C 872,530 834,596 796,624 C 758,596 720,530 720,440 Z" fill="none" stroke="#93c5fd" stroke-width="2" opacity="0.7"/><g stroke="#93c5fd" stroke-width="1.5" opacity="0.35" fill="none"><path d="M 760,430 l 12,-8 l 12,8 l 0,16 l -12,8 l -12,-8 z"/><path d="M 800,470 l 12,-8 l 12,8 l 0,16 l -12,8 l -12,-8 z"/><path d="M 756,510 l 12,-8 l 12,8 l 0,16 l -12,8 l -12,-8 z"/></g><text x="796" y="480" font-size="30" fill="#e0f2fe" text-anchor="middle" font-weight="bold" paint-order="stroke" stroke="#0b1a33" stroke-width="6">GRAMMAR</text><text x="796" y="514" font-size="19" fill="#bfdbfe" text-anchor="middle" paint-order="stroke" stroke="#0b1a33" stroke-width="6">"{" pair* "}"</text></g><g><path d="M 0,880 L 1080,880 L 1080,1080 L 0,1080 Z" fill="#131a2b"/><path d="M 0,880 L 1080,880 L 1080,896 L 0,896 Z" fill="#1e293b"/><rect x="40" y="920" width="200" height="120" rx="10" fill="#0e1526" stroke="#273449" stroke-width="3"/><g><rect x="60" y="940" width="34" height="22" rx="4" fill="#dc2626"/><rect x="102" y="940" width="34" height="22" rx="4" fill="#f59e0b"/><rect x="144" y="940" width="34" height="22" rx="4" fill="#16a34a"/><rect x="60" y="978" width="118" height="14" rx="7" fill="#1f2c44"/><rect x="60" y="978" width="74" height="14" rx="7" fill="#38bdf8"/><rect x="60" y="1002" width="118" height="14" rx="7" fill="#1f2c44"/><rect x="60" y="1002" width="96" height="14" rx="7" fill="#22c55e"/><circle cx="212" cy="985" r="17" fill="#1f2c44" stroke="#38bdf8" stroke-width="3"/><line x1="212" y1="985" x2="222" y2="974" stroke="#38bdf8" stroke-width="3"/></g><rect x="300" y="904" width="480" height="152" rx="12" fill="#0a0f1c" stroke="#334155" stroke-width="4"/><text x="324" y="940" font-size="21" fill="#4ade80">$ llama-server -m qwen2.5-1.5b.gguf</text><text x="324" y="972" font-size="21" fill="#64748b">ctx 4096 | listening :8081</text><text x="324" y="1004" font-size="21" fill="#e2e8f0">&gt; generate JSON...</text><g><rect x="324" y="1020" width="26" height="16" fill="#dc2626"/><rect x="352" y="1020" width="26" height="16" fill="#f97316"/><rect x="380" y="1020" width="26" height="16" fill="#f59e0b"/><rect x="408" y="1020" width="26" height="16" fill="#a3e635"/><rect x="436" y="1020" width="26" height="16" fill="#22c55e"/><rect x="464" y="1020" width="26" height="16" fill="#2dd4bf"/><rect x="492" y="1020" width="26" height="16" fill="#38bdf8"/><rect x="520" y="1020" width="26" height="16" fill="#818cf8"/><rect x="548" y="1020" width="26" height="16" fill="#c084fc"/><rect x="576" y="1020" width="26" height="16" fill="#f472b6"/></g><rect x="840" y="920" width="200" height="120" rx="10" fill="#0e1526" stroke="#273449" stroke-width="3"/><g><circle cx="890" cy="960" r="22" fill="#1f2c44" stroke="#f59e0b" stroke-width="3"/><line x1="890" y1="960" x2="902" y2="946" stroke="#f59e0b" stroke-width="3"/><circle cx="960" cy="960" r="22" fill="#1f2c44" stroke="#22c55e" stroke-width="3"/><line x1="960" y1="960" x2="948" y2="946" stroke="#22c55e" stroke-width="3"/><rect x="868" y="998" width="150" height="12" rx="6" fill="#1f2c44"/><rect x="868" y="998" width="102" height="12" rx="6" fill="#f472b6"/><rect x="868" y="1018" width="150" height="12" rx="6" fill="#1f2c44"/><rect x="868" y="1018" width="66" height="12" rx="6" fill="#38bdf8"/></g></g></svg>